<?xml version="1.0" encoding="UTF-8"?>
<svg id="Layer_2" data-name="Layer 2" xmlns="http://www.w3.org/2000/svg" viewBox="0 0 1359.46 873.43">
  <defs>
    <style>
      .cls-1 {
        fill: #fff;
      }
    </style>
  </defs>
  <g id="Layer_1-2" data-name="Layer 1">
    <g>
      <path class="cls-1" d="m425.81,283.8c52.21,0,107.66,13.61,164.84,40.44l89.09,41.82,89.09-41.82c57.17-26.83,112.63-40.44,164.84-40.44,23.7,0,47.26,2.81,70.61,8.34,19.9-27.35,40.39-53.01,61.43-76.9-43.2-19.57-87.38-29.45-132.05-29.45-52.2,0-107.66,13.61-164.84,40.44l-89.09,41.82-89.09-41.82c-57.17-26.83-112.63-40.44-164.84-40.44-44.67,0-88.85,9.87-132.05,29.45,21.05,23.9,41.54,49.55,61.44,76.9,23.35-5.53,46.91-8.34,70.61-8.34Z"/>
      <path class="cls-1" d="m614.1,518.18c-36.27-17.02-71.26-25.65-104.01-25.65-14.58,0-29.34,1.74-43.86,5.18l-9.31,2.21-5.63-7.74c-12.98-17.84-26.51-34.78-40.21-50.33l-12.84-14.58,17.7-8.02c30.69-13.9,62.36-20.95,94.15-20.95,37,0,76.11,9.55,116.23,28.38l53.41,25.07,53.41-25.07c40.12-18.83,79.23-28.38,116.23-28.38,31.78,0,63.46,7.05,94.15,20.96l17.7,8.02-12.84,14.58c-13.7,15.55-27.22,32.49-40.2,50.33l-5.63,7.74-9.31-2.21c-14.52-3.44-29.28-5.19-43.86-5.19-32.75,0-67.74,8.63-104.01,25.66l-65.63,30.8-65.63-30.81Z"/>
      <circle class="cls-1" cx="679.73" cy="752.96" r="120.47"/>
      <path class="cls-1" d="m1258.06,115.52c-44.39-33.68-91.37-60.48-139.63-79.65C1058.52,12.07,996.35,0,933.66,0c-79.69,0-161.7,19.53-243.75,58.04l-10.18,4.78-10.18-4.78C587.5,19.53,505.49,0,425.81,0c-62.7,0-124.87,12.07-184.79,35.87-48.26,19.17-95.24,45.97-139.63,79.65C53.79,151.63,19.29,188.13,0,210.58c98.19,53.23,188.35,150.18,268.36,288.69,52.1,90.18,83.43,170.22,94.22,199.63,53.52,16.82,108.64,46.26,164.4,87.78-2.4-10.87-3.67-22.15-3.67-33.72,0-17.43,2.87-34.2,8.15-49.87-36.08-23.95-71.1-43.08-104.59-57.08l-9.14-3.82-3.77-9.16c-16.66-40.45-44.65-102.72-83.35-169.72-59.29-102.63-125.24-185.45-196.01-246.16l-22.07-18.93,22.79-18.05c4.7-3.72,9.5-7.4,14.26-10.94,86.94-64.59,179.87-97.34,276.23-97.34,69.05,0,140.78,17.24,213.2,51.23l40.73,19.12,40.73-19.12c72.42-33.99,144.15-51.23,213.2-51.23,96.34,0,189.27,32.75,276.21,97.34,4.75,3.53,9.55,7.21,14.26,10.94l22.8,18.05-22.07,18.93c-70.77,60.71-136.72,143.53-196.01,246.16-38.7,66.99-66.69,129.27-83.35,169.72l-3.77,9.16-9.14,3.82c-33.49,13.99-68.5,33.13-104.59,57.08,5.29,15.67,8.15,32.44,8.15,49.87,0,11.58-1.28,22.86-3.67,33.72,55.77-41.52,110.88-70.96,164.4-87.78,10.79-29.42,42.12-109.45,94.22-199.63,80.01-138.5,170.17-235.45,268.36-288.68-19.3-22.45-53.8-58.95-101.4-95.07Z"/>
      <circle class="cls-1" cx="679.73" cy="752.96" r="120.47"/>
    </g>
  </g>
</svg>